<svg width="183" height="57" viewBox="0 0 183 57" fill="none" xmlns="http://www.w3.org/2000/svg">
<g clip-path="url(#clip0_570_388)">
<path d="M54.7437 21.4617L66.829 5.39022C66.829 5.39022 70.8071 -0.452665 75.4327 5.39022L90.2948 24.0295C90.2948 24.0295 94.9276 30.7 99.3301 27.4673C100.208 26.8165 100.79 25.7625 100.762 24.6661C100.74 23.9021 100.531 22.933 99.92 21.8225C99.92 21.8366 99.92 21.8508 99.92 21.8649C99.9487 22.9613 99.3589 24.0224 98.4596 24.6661C93.9564 27.8988 89.2086 21.2283 89.2086 21.2283L73.9868 2.59611C69.2461 -3.24678 65.1745 2.59611 65.1745 2.59611L52.8014 18.6676C52.2475 19.3891 52.3194 20.4077 52.9668 21.0444L54.3912 22.445C54.4128 22.0983 54.5278 21.7517 54.7437 21.4617Z" fill="#F39F2E"/>
<path d="M148.636 51.0369C148.11 51.0369 147.6 50.8318 147.226 50.4639L124.472 28.0827C124.148 27.7644 123.602 27.8846 123.443 28.302L120.307 36.7197C118.437 39.8675 116.437 36.7197 116.437 36.7197C107.092 21.3627 98.0137 17.557 98.0137 17.557C99.0568 18.7666 99.5531 19.8701 99.7689 20.8038C102.222 22.1832 109.466 27.0287 116.883 39.5209C116.883 39.5209 118.839 42.6687 120.667 39.5209L123.731 31.1032C123.882 30.6858 124.422 30.5656 124.731 30.8839L146.442 52.7417H158.628V51.0369H148.636Z" fill="#F39F2E"/>
<path d="M40.752 36.8116L44.4208 26.576L56.9018 37.3422L60.5059 38.2122L44.4208 24.3265L40.752 34.5622C40.752 34.5622 39.5507 37.9293 39.86 41.0205C40.0614 38.7428 40.752 36.8116 40.752 36.8116Z" fill="#F39F2E"/>
<path d="M17.5382 46.9271C17.6893 46.6795 17.977 46.5451 18.2647 46.5875L23.1133 47.2454C23.4082 47.2878 23.7032 47.1605 23.8758 46.92L28.2784 40.8083C28.415 40.6173 28.6884 40.589 28.8682 40.7376L35.4792 46.4531C40.4788 49.1129 39.8818 43.4963 39.8818 43.4963C39.853 43.2629 39.8314 43.0295 39.8242 42.789C39.5796 44.2249 38.6732 45.9014 35.4792 44.2037L28.8682 38.4881C28.6884 38.3325 28.415 38.3679 28.2784 38.5589L23.8758 44.6706C23.7032 44.9111 23.4082 45.0384 23.1133 44.996L18.2647 44.3381C17.977 44.2957 17.6893 44.4301 17.5382 44.6776L14.3514 49.8415C14.1428 50.1739 13.7831 50.3791 13.3874 50.3791H0V52.0838H14.3514L17.5382 46.9271Z" fill="#F39F2E"/>
<path d="M105.387 56.8444C103.747 56.8373 102.344 56.2714 101.186 55.1396C100.021 53.9937 99.438 52.6143 99.438 51.0015C99.438 49.3958 100.021 48.0093 101.186 46.8563C102.359 45.7033 103.754 45.1303 105.387 45.1303L105.38 45.1586C106.991 45.1586 108.401 45.7316 109.603 46.8704L107.919 48.5257C107.207 47.8395 106.366 47.4929 105.394 47.4929C104.402 47.4929 103.567 47.8395 102.877 48.5257C102.179 49.226 101.826 50.0536 101.826 51.0086C101.826 51.9777 102.179 52.8053 102.877 53.4914C103.574 54.1776 104.409 54.5171 105.394 54.5171C106.387 54.5171 107.229 54.1705 107.927 53.4844L109.61 55.1396C108.444 56.2714 107.035 56.8444 105.387 56.8444Z" fill="white"/>
<path d="M119.372 45.0949L124.731 56.8797H122.177L121.386 55.1254H117.365L116.573 56.8797H114.027L119.372 45.0949ZM120.444 53.0741L119.372 50.6336L118.286 53.0741H120.444Z" fill="white"/>
<path d="M136.522 51.5957V45.1869H138.888V57L131.81 50.3648V56.7736H129.45V44.9676L136.522 51.5957Z" fill="white"/>
<path d="M146.823 45.2152L148.967 49.2189L151.11 45.2152H153.786L150.146 51.815V56.7666H147.801V51.815L144.168 45.2152H146.823Z" fill="white"/>
<path d="M167.879 46.8563C169.052 48.0093 169.634 49.3887 169.634 51.0015C169.634 52.6214 169.052 54.0007 167.879 55.1396C166.714 56.2785 165.311 56.8444 163.671 56.8444C162.023 56.8373 160.621 56.2714 159.462 55.1396C158.297 53.9937 157.714 52.6143 157.714 51.0015C157.714 49.3958 158.297 48.0093 159.462 46.8563C160.635 45.7033 162.038 45.1303 163.671 45.1303C165.304 45.1303 166.706 45.7033 167.879 46.8563ZM161.139 48.5045C160.441 49.2048 160.088 50.0324 160.088 50.9873C160.088 51.9564 160.441 52.7841 161.139 53.4702C161.836 54.1564 162.678 54.4959 163.664 54.4959C164.642 54.4959 165.476 54.1564 166.181 53.4702C166.886 52.7841 167.239 51.9564 167.239 50.9873C167.239 50.0253 166.886 49.1906 166.181 48.5045C165.484 47.8183 164.642 47.4717 163.664 47.4717C162.671 47.4717 161.829 47.8112 161.139 48.5045Z" fill="white"/>
<path d="M180.633 51.6027V45.194H183V57.0071L175.922 50.3719V56.7807H173.562V44.9747L180.633 51.6027Z" fill="white"/>
</g>
<defs>
<clipPath id="clip0_570_388">
<rect width="183" height="57" fill="white"/>
</clipPath>
</defs>
</svg>
