<svg width="29" height="28" viewBox="0 0 29 28" fill="none" xmlns="http://www.w3.org/2000/svg">
<g id="socials">
<rect id="Rectangle 1" x="0.5" y="0.5" width="28" height="26.2523" rx="13.1261" stroke="white"/>
<g id="instagram">
<path d="M14.5 8.04427C16.4217 8.04427 16.6837 8.04427 17.4699 8.04427C18.1687 8.04427 18.5181 8.20844 18.7801 8.29052C19.1295 8.45469 19.3916 8.53678 19.6536 8.78303C19.9157 9.02929 20.0904 9.27554 20.1777 9.60388C20.2651 9.85014 20.3524 10.1785 20.4398 10.8352C20.4398 11.5739 20.4398 11.7381 20.4398 13.6261C20.4398 15.514 20.4398 15.6782 20.4398 16.417C20.4398 17.0736 20.2651 17.402 20.1777 17.6482C20.003 17.9766 19.9157 18.2228 19.6536 18.4691C19.3916 18.7153 19.1295 18.8795 18.7801 18.9616C18.5181 19.0437 18.1687 19.1258 17.4699 19.2078C16.6837 19.2078 16.509 19.2078 14.5 19.2078C12.491 19.2078 12.3163 19.2078 11.5301 19.2078C10.8313 19.2078 10.4819 19.0437 10.2199 18.9616C9.87048 18.7974 9.60843 18.7153 9.34639 18.4691C9.08434 18.2228 8.90964 17.9766 8.82229 17.6482C8.73494 17.402 8.64759 17.0736 8.56024 16.417C8.56024 15.6782 8.56024 15.514 8.56024 13.6261C8.56024 11.7381 8.56024 11.5739 8.56024 10.8352C8.56024 10.1785 8.73494 9.85014 8.82229 9.60388C8.99699 9.27554 9.08434 9.02929 9.34639 8.78303C9.60843 8.53678 9.87048 8.37261 10.2199 8.29052C10.4819 8.20844 10.8313 8.12635 11.5301 8.04427C12.3163 8.04427 12.5783 8.04427 14.5 8.04427ZM14.5 6.81299C12.491 6.81299 12.3163 6.81299 11.5301 6.81299C10.744 6.81299 10.2199 6.97716 9.78313 7.14133C9.34639 7.3055 8.90964 7.55176 8.47289 7.96218C8.03615 8.37261 7.86145 8.70095 7.5994 9.19346C7.4247 9.60388 7.33735 10.0964 7.25 10.8352C7.25 11.5739 7.25 11.8202 7.25 13.6261C7.25 15.514 7.25 15.6782 7.25 16.417C7.25 17.1557 7.4247 17.6482 7.5994 18.0587C7.7741 18.4691 8.03615 18.8795 8.47289 19.2899C8.90964 19.7004 9.25904 19.8645 9.78313 20.1108C10.2199 20.275 10.744 20.357 11.5301 20.4391C12.3163 20.4391 12.5783 20.4391 14.5 20.4391C16.4217 20.4391 16.6837 20.4391 17.4699 20.4391C18.256 20.4391 18.7801 20.275 19.2169 20.1108C19.6536 19.9466 20.0904 19.7004 20.5271 19.2899C20.9639 18.8795 21.1386 18.5512 21.4006 18.0587C21.5753 17.6482 21.6627 17.1557 21.75 16.417C21.75 15.6782 21.75 15.4319 21.75 13.6261C21.75 11.8202 21.75 11.5739 21.75 10.8352C21.75 10.0964 21.5753 9.60388 21.4006 9.19346C21.2259 8.78303 20.9639 8.37261 20.5271 7.96218C20.0904 7.55176 19.741 7.38758 19.2169 7.14133C18.7801 6.97716 18.256 6.89507 17.4699 6.81299C16.6837 6.81299 16.509 6.81299 14.5 6.81299Z" fill="white"/>
<path d="M14.5 10.0964C12.4036 10.0964 10.744 11.656 10.744 13.6261C10.744 15.5961 12.4036 17.1557 14.5 17.1557C16.5964 17.1557 18.256 15.5961 18.256 13.6261C18.256 11.656 16.5964 10.0964 14.5 10.0964ZM14.5 15.9244C13.1898 15.9244 12.0542 14.9394 12.0542 13.6261C12.0542 12.3948 13.1024 11.3277 14.5 11.3277C15.8102 11.3277 16.9458 12.3127 16.9458 13.6261C16.9458 14.8573 15.8102 15.9244 14.5 15.9244Z" fill="white"/>
<path d="M18.3434 10.8352C18.8258 10.8352 19.2169 10.4677 19.2169 10.0143C19.2169 9.56097 18.8258 9.19346 18.3434 9.19346C17.861 9.19346 17.4699 9.56097 17.4699 10.0143C17.4699 10.4677 17.861 10.8352 18.3434 10.8352Z" fill="white"/>
</g>
</g>
</svg>
