<svg width="29" height="28" viewBox="0 0 29 28" fill="none" xmlns="http://www.w3.org/2000/svg">
<g id="socials">
<rect id="Rectangle 1" x="0.5" y="0.5" width="28" height="26.2523" rx="13.1261" stroke="white"/>
<path id="Vector" d="M20.2469 8.21834C18.8146 6.87701 16.9049 6.13184 14.889 6.13184C10.6982 6.13184 7.30305 9.31127 7.30305 13.2359C7.30305 14.4778 7.67439 15.7198 8.31098 16.7631L7.25 20.4393L11.2817 19.4457C12.3957 19.9922 13.6159 20.2902 14.889 20.2902C19.0799 20.2902 22.475 17.1108 22.475 13.1862C22.422 11.3481 21.6793 9.55966 20.2469 8.21834ZM18.5494 15.7695C18.3902 16.1669 17.6476 16.5643 17.2762 16.614C16.9579 16.6637 16.5335 16.6637 16.1091 16.5643C15.8439 16.465 15.4726 16.3656 15.0482 16.1669C13.1384 15.4217 11.9183 13.6333 11.8122 13.4843C11.7061 13.3849 11.0165 12.5404 11.0165 11.6462C11.0165 10.7519 11.4939 10.3545 11.653 10.1558C11.8122 9.95709 12.0244 9.95709 12.1835 9.95709C12.2896 9.95709 12.4488 9.95709 12.5549 9.95709C12.661 9.95709 12.8201 9.90741 12.9793 10.2552C13.1384 10.6029 13.5098 11.4971 13.5628 11.5468C13.6159 11.6462 13.6159 11.7455 13.5628 11.8449C13.5098 11.9442 13.4567 12.0436 13.3506 12.1429C13.2445 12.2423 13.1384 12.3913 13.0854 12.441C12.9793 12.5404 12.8732 12.6397 12.9793 12.7888C13.0854 12.9875 13.4567 13.5339 14.0402 14.0307C14.7829 14.6269 15.3665 14.8256 15.5787 14.925C15.7909 15.0243 15.8969 14.9746 16.003 14.8753C16.1091 14.7759 16.4805 14.3785 16.5866 14.1798C16.6927 13.9811 16.8518 14.0307 17.011 14.0804C17.1701 14.1301 18.125 14.5772 18.2841 14.6766C18.4963 14.7759 18.6024 14.8256 18.6555 14.8753C18.7085 15.0243 18.7085 15.3721 18.5494 15.7695Z" fill="white"/>
</g>
</svg>
