<svg width="29" height="28" viewBox="0 0 29 28" fill="none" xmlns="http://www.w3.org/2000/svg">
<g id="socials">
<rect id="Rectangle 1" x="0.5" y="0.5" width="28" height="26.2523" rx="13.1261" stroke="white"/>
<path id="Vector" fill-rule="evenodd" clip-rule="evenodd" d="M8.16521 18.4338C7.88082 18.3547 7.62133 18.214 7.40865 18.0237C7.19596 17.8333 7.03632 17.5987 6.94319 17.3399C6.41102 16.0019 6.25334 10.4149 7.27826 9.31193C7.61937 8.95314 8.10097 8.73224 8.61854 8.69718C11.3681 8.42596 19.8631 8.46212 20.8387 8.78758C21.1131 8.86925 21.3638 9.00683 21.5721 9.19001C21.7803 9.37319 21.9406 9.59722 22.041 9.84532C22.6225 11.2285 22.6422 16.255 21.9622 17.584C21.7818 17.9299 21.4798 18.2101 21.1048 18.3795C20.0799 18.8496 9.52519 18.8406 8.16521 18.4338ZM12.531 15.812L17.4585 13.4615L12.531 11.0929V15.812Z" fill="white"/>
</g>
</svg>
